<svg xmlns="http://www.w3.org/2000/svg" xmlns:xlink="http://www.w3.org/1999/xlink" width="500" zoomAndPan="magnify" viewBox="0 0 375 374.999991" height="500" preserveAspectRatio="xMidYMid meet" version="1.0"><defs><g/><clipPath id="d3559290aa"><path d="M 199.4375 82.4375 L 260.9375 82.4375 L 260.9375 137.1875 L 199.4375 137.1875 Z M 199.4375 82.4375 " clip-rule="nonzero"/></clipPath></defs><rect x="-37.5" width="450" fill="#ffffff" y="-37.499999" height="449.999989" fill-opacity="1"/><rect x="-37.5" width="450" fill="#110099" y="-37.499999" height="449.999989" fill-opacity="1"/><g fill="#ffffff" fill-opacity="1"><g transform="translate(5.739864, 236.534322)"><g><path d="M 48.953125 -96.09375 C 63.941406 -96.09375 75.125 -91.226562 82.5 -81.5 C 89.875 -71.769531 93.5625 -57.898438 93.5625 -39.890625 L 31.1875 -39.890625 C 31.425781 -33.597656 33.269531 -28.1875 36.71875 -23.65625 C 40.164062 -19.125 45.148438 -16.859375 51.671875 -16.859375 C 55.785156 -16.859375 59.140625 -17.914062 61.734375 -20.03125 C 64.335938 -22.144531 66.242188 -25.441406 67.453125 -29.921875 L 92.28125 -25.75 C 89.144531 -16.5625 84.070312 -9.609375 77.0625 -4.890625 C 70.050781 -0.179688 61.46875 2.171875 51.3125 2.171875 C 36.195312 2.171875 24.773438 -2.359375 17.046875 -11.421875 C 13.421875 -15.648438 10.640625 -20.96875 8.703125 -27.375 C 6.765625 -33.78125 5.796875 -40.128906 5.796875 -46.421875 C 5.796875 -55.003906 7.335938 -63.070312 10.421875 -70.625 C 13.503906 -78.175781 18.28125 -84.304688 24.75 -89.015625 C 31.21875 -93.734375 39.285156 -96.09375 48.953125 -96.09375 Z M 31.734375 -55.125 L 68.90625 -55.125 C 68.78125 -62.738281 66.875 -68.296875 63.1875 -71.796875 C 59.5 -75.304688 55.175781 -77.0625 50.21875 -77.0625 C 44.414062 -77.0625 39.882812 -74.972656 36.625 -70.796875 C 33.363281 -66.628906 31.734375 -61.40625 31.734375 -55.125 Z M 31.734375 -55.125 "/></g></g></g><g fill="#ffffff" fill-opacity="1"><g transform="translate(106.530736, 236.534322)"><g><path d="M 47.328125 -96.09375 C 59.046875 -96.09375 68.257812 -94.15625 74.96875 -90.28125 C 81.675781 -86.414062 86.300781 -80.070312 88.84375 -71.25 L 65.265625 -66.90625 C 64.179688 -70.769531 62.21875 -73.640625 59.375 -75.515625 C 56.539062 -77.390625 52.582031 -78.328125 47.5 -78.328125 C 36.257812 -78.328125 30.640625 -75.726562 30.640625 -70.53125 C 30.640625 -67.988281 32.484375 -65.960938 36.171875 -64.453125 C 39.859375 -62.941406 45.207031 -61.398438 52.21875 -59.828125 C 60.800781 -57.898438 67.8125 -55.9375 73.25 -53.9375 C 78.6875 -51.945312 83.15625 -48.984375 86.65625 -45.046875 C 90.164062 -41.117188 91.921875 -35.894531 91.921875 -29.375 C 91.921875 -24.050781 90.441406 -19.003906 87.484375 -14.234375 C 84.523438 -9.460938 79.84375 -5.535156 73.4375 -2.453125 C 67.03125 0.628906 58.929688 2.171875 49.140625 2.171875 C 38.140625 2.171875 28.4375 -0.179688 20.03125 -4.890625 C 11.632812 -9.609375 6.347656 -16.921875 4.171875 -26.828125 L 29.015625 -30.640625 C 31.304688 -20.609375 38.015625 -15.59375 49.140625 -15.59375 C 53.484375 -15.59375 57.554688 -16.347656 61.359375 -17.859375 C 65.171875 -19.367188 67.078125 -22.054688 67.078125 -25.921875 C 67.078125 -28.460938 66.203125 -30.242188 64.453125 -31.265625 C 62.703125 -32.296875 59.894531 -33.238281 56.03125 -34.09375 C 44.539062 -36.625 35.59375 -38.976562 29.1875 -41.15625 C 22.78125 -43.332031 17.582031 -46.472656 13.59375 -50.578125 C 9.601562 -54.691406 7.609375 -60.253906 7.609375 -67.265625 C 7.609375 -77.054688 11.351562 -84.304688 18.84375 -89.015625 C 26.34375 -93.734375 35.835938 -96.09375 47.328125 -96.09375 Z M 47.328125 -96.09375 "/></g></g></g><g fill="#ffffff" fill-opacity="1"><g transform="translate(207.321608, 236.534322)"><g><path d="M 63.453125 -96.09375 C 75.660156 -96.09375 84.546875 -91.140625 90.109375 -81.234375 C 98.210938 -91.140625 107.765625 -96.09375 118.765625 -96.09375 C 129.160156 -96.09375 136.894531 -93.25 141.96875 -87.5625 C 147.039062 -81.882812 149.578125 -73.367188 149.578125 -62.015625 L 149.578125 0 L 124.75 0 L 124.75 -56.203125 C 124.75 -62.972656 123.867188 -68.140625 122.109375 -71.703125 C 120.359375 -75.273438 116.820312 -77.0625 111.5 -77.0625 C 106.425781 -77.0625 102.347656 -75.304688 99.265625 -71.796875 C 96.179688 -68.296875 94.28125 -63.765625 93.5625 -58.203125 C 93.070312 -53.847656 92.828125 -49.976562 92.828125 -46.59375 L 92.828125 0 L 68 0 L 68 -55.296875 C 68 -62.910156 67.179688 -68.441406 65.546875 -71.890625 C 63.910156 -75.335938 60.4375 -77.0625 55.125 -77.0625 C 51.25 -77.0625 47.769531 -76.03125 44.6875 -73.96875 C 41.601562 -71.914062 39.457031 -69.078125 38.25 -65.453125 C 36.800781 -61.097656 36.078125 -54.992188 36.078125 -47.140625 L 36.078125 0 L 11.234375 0 L 11.234375 -93.921875 L 34.265625 -93.921875 L 34.625 -81.234375 C 38.5 -85.941406 42.582031 -89.59375 46.875 -92.1875 C 51.164062 -94.789062 56.691406 -96.09375 63.453125 -96.09375 Z M 63.453125 -96.09375 "/></g></g></g><g clip-path="url(#d3559290aa)"><path fill="#ffffff" d="M 221.695312 97.394531 L 199.4375 137.1875 L 230.195312 119.539062 L 260.925781 137.164062 L 260.9375 137.144531 L 260.925781 137.136719 L 230.207031 82.460938 L 230.207031 82.449219 L 230.1875 82.441406 Z M 221.695312 97.394531 " fill-opacity="1" fill-rule="nonzero"/></g></svg>